<svg width="100" height="80" viewBox="0 0 100 80" fill="none" xmlns="http://www.w3.org/2000/svg">
<path fill-rule="evenodd" clip-rule="evenodd" d="M22.692 4H12.0581L17.3081 16H27.942L22.692 4ZM27.0581 4L32.3081 16H42.942L37.692 4H27.0581ZM57.942 16H47.3081L42.0581 4H52.692L57.942 16ZM62.3081 16H72.942L67.692 4H57.0581L62.3081 16ZM87.942 16H77.3081L72.0581 4H82.692L87.942 16ZM92.3081 16H96V9C96 6.23857 93.7614 4 91 4H87.0581L92.3081 16ZM4 9C4 6.66667 5.59831 4.70663 7.75982 4.155L12.942 16H4V9ZM100 16V20V71C100 75.9706 95.9706 80 91 80H9C4.02943 80 0 75.9706 0 71V20V16V9C0 4.02944 4.02944 0 9 0H91C95.9706 0 100 4.02944 100 9V16ZM4 20V71C4 73.7614 6.23857 76 9 76H91C93.7614 76 96 73.7614 96 71V20H4ZM60 49L42 60V38L60 49Z" fill="#919191"/>
</svg>
